<svg width="200" height="120" viewBox="0 0 200 120" fill="none" xmlns="http://www.w3.org/2000/svg">
  <rect width="200" height="120" fill="#f5f5f5"/>
  <!-- Left side text content -->
  <rect x="10" y="20" width="80" height="6" rx="3" fill="#333"/>
  <rect x="10" y="32" width="70" height="4" rx="2" fill="#666"/>
  <rect x="10" y="40" width="75" height="4" rx="2" fill="#666"/>
  <!-- Process steps -->
  <rect x="10" y="55" width="20" height="3" rx="1.5" fill="#999"/>
  <rect x="35" y="55" width="20" height="3" rx="1.5" fill="#999"/>
  <rect x="60" y="55" width="20" height="3" rx="1.5" fill="#999"/>
  <!-- Buttons -->
  <rect x="10" y="70" width="30" height="10" rx="5" fill="#000"/>
  <rect x="45" y="70" width="30" height="10" rx="5" fill="none" stroke="#ccc" stroke-width="1"/>
  <!-- Right side image -->
  <rect x="100" y="20" width="90" height="60" rx="4" fill="#e0e0e0"/>
  <circle cx="145" cy="50" r="15" fill="#ccc"/>
  <!-- Stats at bottom -->
  <rect x="10" y="95" width="50" height="15" rx="2" fill="#f0f0f0"/>
  <rect x="75" y="95" width="50" height="15" rx="2" fill="#f0f0f0"/>
  <rect x="140" y="95" width="50" height="15" rx="2" fill="#f0f0f0"/>
</svg>