<svg width="600" height="400" viewBox="0 0 600 400" fill="none" xmlns="http://www.w3.org/2000/svg">
  <!-- Background -->
  <rect width="600" height="400" fill="#F9FAFB"/>
  
  <!-- Left Content -->
  <g transform="translate(50, 80)">
    <!-- Process Steps -->
    <g>
      <rect x="0" y="0" width="120" height="24" rx="12" fill="#EEF2FF"/>
      <circle cx="14" cy="12" r="4" fill="#818CF8"/>
      <rect x="26" y="9" width="80" height="6" rx="2" fill="#6366F1"/>
    </g>
    <g transform="translate(0, 30)">
      <rect x="0" y="0" width="120" height="24" rx="12" fill="#EEF2FF"/>
      <circle cx="14" cy="12" r="4" fill="#818CF8"/>
      <rect x="26" y="9" width="80" height="6" rx="2" fill="#6366F1"/>
    </g>
    <g transform="translate(0, 60)">
      <rect x="0" y="0" width="120" height="24" rx="12" fill="#EEF2FF"/>
      <circle cx="14" cy="12" r="4" fill="#818CF8"/>
      <rect x="26" y="9" width="80" height="6" rx="2" fill="#6366F1"/>
    </g>
    
    <!-- Title -->
    <rect x="0" y="110" width="220" height="16" rx="2" fill="#1F2937"/>
    <rect x="0" y="132" width="180" height="16" rx="2" fill="#1F2937"/>
    
    <!-- Description -->
    <rect x="0" y="164" width="240" height="8" rx="2" fill="#6B7280"/>
    <rect x="0" y="176" width="220" height="8" rx="2" fill="#6B7280"/>
    <rect x="0" y="188" width="200" height="8" rx="2" fill="#6B7280"/>
    
    <!-- CTA Buttons -->
    <rect x="0" y="216" width="100" height="32" rx="16" fill="#1F2937"/>
    <rect x="110" y="216" width="100" height="32" rx="16" fill="none" stroke="#E5E7EB" stroke-width="2"/>
    
    <!-- Stats -->
    <g transform="translate(0, 270)">
      <rect x="0" y="0" width="60" height="40" rx="4" fill="#F3F4F6"/>
      <rect x="10" y="8" width="40" height="10" rx="2" fill="#818CF8"/>
      <rect x="15" y="24" width="30" height="6" rx="2" fill="#9CA3AF"/>
    </g>
    <g transform="translate(70, 270)">
      <rect x="0" y="0" width="60" height="40" rx="4" fill="#F3F4F6"/>
      <rect x="10" y="8" width="40" height="10" rx="2" fill="#10B981"/>
      <rect x="15" y="24" width="30" height="6" rx="2" fill="#9CA3AF"/>
    </g>
    <g transform="translate(140, 270)">
      <rect x="0" y="0" width="60" height="40" rx="4" fill="#F3F4F6"/>
      <rect x="10" y="8" width="40" height="10" rx="2" fill="#F59E0B"/>
      <rect x="15" y="24" width="30" height="6" rx="2" fill="#9CA3AF"/>
    </g>
  </g>
  
  <!-- Right Image -->
  <g transform="translate(340, 80)">
    <rect x="0" y="0" width="210" height="240" rx="8" fill="#E5E7EB"/>
    <circle cx="105" cy="120" r="60" fill="#D1D5DB"/>
    <path d="M 85 120 L 125 100 L 125 140 Z" fill="#9CA3AF"/>
  </g>
  
  <!-- Header indicator -->
  <text x="300" y="30" text-anchor="middle" fill="#6B7280" font-family="system-ui" font-size="12" font-weight="500">Hero with Process Steps</text>
</svg>