<svg width="600" height="400" viewBox="0 0 600 400" fill="none" xmlns="http://www.w3.org/2000/svg">
  <!-- Background -->
  <rect width="600" height="400" fill="#F9FAFB"/>
  
  <!-- Header Section -->
  <g transform="translate(0, 30)">
    <!-- Title -->
    <rect x="200" y="0" width="200" height="16" rx="2" fill="#1F2937"/>
    <!-- Subtitle -->
    <rect x="150" y="26" width="300" height="10" rx="2" fill="#6B7280"/>
    <rect x="180" y="42" width="240" height="10" rx="2" fill="#6B7280"/>
  </g>
  
  <!-- Voice Cards Grid -->
  <g transform="translate(40, 100)">
    <!-- Row 1 -->
    <!-- Card 1 -->
    <g>
      <rect x="0" y="0" width="120" height="120" rx="8" fill="white"/>
      <rect x="0" y="0" width="120" height="120" rx="8" fill="none" stroke="#E5E7EB" stroke-width="1"/>
      <!-- Avatar -->
      <circle cx="60" cy="45" r="25" fill="#E5E7EB"/>
      <circle cx="60" cy="45" r="20" fill="#D1D5DB"/>
      <!-- Play button -->
      <path d="M 55 45 L 65 40 L 65 50 Z" fill="#9CA3AF"/>
      <!-- Name -->
      <rect x="25" y="80" width="70" height="10" rx="2" fill="#1F2937"/>
      <!-- Language badges -->
      <rect x="20" y="96" width="30" height="14" rx="7" fill="#EEF2FF"/>
      <rect x="55" y="96" width="30" height="14" rx="7" fill="#F0FDF4"/>
    </g>
    
    <!-- Card 2 -->
    <g transform="translate(140, 0)">
      <rect x="0" y="0" width="120" height="120" rx="8" fill="white"/>
      <rect x="0" y="0" width="120" height="120" rx="8" fill="none" stroke="#E5E7EB" stroke-width="1"/>
      <!-- Avatar -->
      <circle cx="60" cy="45" r="25" fill="#E5E7EB"/>
      <circle cx="60" cy="45" r="20" fill="#D1D5DB"/>
      <!-- Play button -->
      <path d="M 55 45 L 65 40 L 65 50 Z" fill="#9CA3AF"/>
      <!-- Name -->
      <rect x="30" y="80" width="60" height="10" rx="2" fill="#1F2937"/>
      <!-- Language badges -->
      <rect x="20" y="96" width="30" height="14" rx="7" fill="#FEF3C7"/>
      <rect x="55" y="96" width="30" height="14" rx="7" fill="#FEE2E2"/>
    </g>
    
    <!-- Card 3 -->
    <g transform="translate(280, 0)">
      <rect x="0" y="0" width="120" height="120" rx="8" fill="white"/>
      <rect x="0" y="0" width="120" height="120" rx="8" fill="none" stroke="#E5E7EB" stroke-width="1"/>
      <!-- Avatar with availability indicator -->
      <circle cx="60" cy="45" r="25" fill="#E5E7EB"/>
      <circle cx="60" cy="45" r="20" fill="#D1D5DB"/>
      <circle cx="75" cy="30" r="5" fill="#10B981"/>
      <!-- Play button -->
      <path d="M 55 45 L 65 40 L 65 50 Z" fill="#9CA3AF"/>
      <!-- Name -->
      <rect x="20" y="80" width="80" height="10" rx="2" fill="#1F2937"/>
      <!-- Language badges -->
      <rect x="20" y="96" width="30" height="14" rx="7" fill="#EEF2FF"/>
      <rect x="55" y="96" width="30" height="14" rx="7" fill="#F0FDF4"/>
    </g>
    
    <!-- Card 4 -->
    <g transform="translate(420, 0)">
      <rect x="0" y="0" width="120" height="120" rx="8" fill="white"/>
      <rect x="0" y="0" width="120" height="120" rx="8" fill="none" stroke="#E5E7EB" stroke-width="1"/>
      <!-- Avatar -->
      <circle cx="60" cy="45" r="25" fill="#E5E7EB"/>
      <circle cx="60" cy="45" r="20" fill="#D1D5DB"/>
      <!-- Play button -->
      <path d="M 55 45 L 65 40 L 65 50 Z" fill="#9CA3AF"/>
      <!-- Name -->
      <rect x="35" y="80" width="50" height="10" rx="2" fill="#1F2937"/>
      <!-- Language badges -->
      <rect x="20" y="96" width="30" height="14" rx="7" fill="#FEF3C7"/>
      <rect x="55" y="96" width="30" height="14" rx="7" fill="#EEF2FF"/>
    </g>
    
    <!-- Row 2 -->
    <!-- Card 5 -->
    <g transform="translate(0, 140)">
      <rect x="0" y="0" width="120" height="120" rx="8" fill="white"/>
      <rect x="0" y="0" width="120" height="120" rx="8" fill="none" stroke="#E5E7EB" stroke-width="1"/>
      <!-- Avatar with availability indicator -->
      <circle cx="60" cy="45" r="25" fill="#E5E7EB"/>
      <circle cx="60" cy="45" r="20" fill="#D1D5DB"/>
      <circle cx="75" cy="30" r="5" fill="#10B981"/>
      <!-- Play button -->
      <path d="M 55 45 L 65 40 L 65 50 Z" fill="#9CA3AF"/>
      <!-- Name -->
      <rect x="25" y="80" width="70" height="10" rx="2" fill="#1F2937"/>
      <!-- Language badges -->
      <rect x="20" y="96" width="30" height="14" rx="7" fill="#F0FDF4"/>
      <rect x="55" y="96" width="30" height="14" rx="7" fill="#FEE2E2"/>
    </g>
    
    <!-- Card 6 -->
    <g transform="translate(140, 140)">
      <rect x="0" y="0" width="120" height="120" rx="8" fill="white"/>
      <rect x="0" y="0" width="120" height="120" rx="8" fill="none" stroke="#E5E7EB" stroke-width="1"/>
      <!-- Avatar -->
      <circle cx="60" cy="45" r="25" fill="#E5E7EB"/>
      <circle cx="60" cy="45" r="20" fill="#D1D5DB"/>
      <!-- Play button -->
      <path d="M 55 45 L 65 40 L 65 50 Z" fill="#9CA3AF"/>
      <!-- Name -->
      <rect x="30" y="80" width="60" height="10" rx="2" fill="#1F2937"/>
      <!-- Language badges -->
      <rect x="20" y="96" width="30" height="14" rx="7" fill="#EEF2FF"/>
      <rect x="55" y="96" width="30" height="14" rx="7" fill="#FEF3C7"/>
    </g>
    
    <!-- Card 7 -->
    <g transform="translate(280, 140)">
      <rect x="0" y="0" width="120" height="120" rx="8" fill="white"/>
      <rect x="0" y="0" width="120" height="120" rx="8" fill="none" stroke="#E5E7EB" stroke-width="1"/>
      <!-- Avatar -->
      <circle cx="60" cy="45" r="25" fill="#E5E7EB"/>
      <circle cx="60" cy="45" r="20" fill="#D1D5DB"/>
      <!-- Play button -->
      <path d="M 55 45 L 65 40 L 65 50 Z" fill="#9CA3AF"/>
      <!-- Name -->
      <rect x="20" y="80" width="80" height="10" rx="2" fill="#1F2937"/>
      <!-- Language badges -->
      <rect x="20" y="96" width="30" height="14" rx="7" fill="#F0FDF4"/>
      <rect x="55" y="96" width="30" height="14" rx="7" fill="#FEF3C7"/>
    </g>
    
    <!-- Card 8 -->
    <g transform="translate(420, 140)">
      <rect x="0" y="0" width="120" height="120" rx="8" fill="white"/>
      <rect x="0" y="0" width="120" height="120" rx="8" fill="none" stroke="#E5E7EB" stroke-width="1"/>
      <!-- Avatar with availability indicator -->
      <circle cx="60" cy="45" r="25" fill="#E5E7EB"/>
      <circle cx="60" cy="45" r="20" fill="#D1D5DB"/>
      <circle cx="75" cy="30" r="5" fill="#10B981"/>
      <!-- Play button -->
      <path d="M 55 45 L 65 40 L 65 50 Z" fill="#9CA3AF"/>
      <!-- Name -->
      <rect x="35" y="80" width="50" height="10" rx="2" fill="#1F2937"/>
      <!-- Language badges -->
      <rect x="20" y="96" width="30" height="14" rx="7" fill="#EEF2FF"/>
      <rect x="55" y="96" width="30" height="14" rx="7" fill="#F0FDF4"/>
    </g>
  </g>
  
  <!-- Header indicator -->
  <text x="300" y="20" text-anchor="middle" fill="#6B7280" font-family="system-ui" font-size="12" font-weight="500">Voiceover Cards Grid</text>
</svg>