<svg width="32" height="32" viewBox="0 0 32 32" fill="none" xmlns="http://www.w3.org/2000/svg">
<g clip-path="url(#clip0_267_51)">
<rect width="32" height="32" fill="white"/>
<circle cx="16" cy="16" r="16" fill="#18F109"/>
<path d="M11.1807 20.0811C11.1807 20.833 10.9902 21.3799 10.6094 21.7217C10.2285 22.0635 9.63281 22.2344 8.82227 22.2344C8.00195 22.2344 7.40137 22.0635 7.02051 21.7217C6.63965 21.3799 6.44922 20.833 6.44922 20.0811V10.2959C6.44922 10.1689 6.43457 10.042 6.40527 9.91504C6.37598 9.77832 6.32227 9.66113 6.24414 9.56348C6.16602 9.45605 6.05859 9.36816 5.92188 9.2998C5.78516 9.23145 5.60938 9.19727 5.39453 9.19727C5.19922 9.19727 5.00879 9.23633 4.82324 9.31445C4.6377 9.39258 4.4668 9.48047 4.31055 9.57812C4.13477 9.68555 3.95898 9.80762 3.7832 9.94434L3.41699 9.46094C4.61816 8.51367 5.70703 7.83496 6.68359 7.4248C7.66992 7.00488 8.59277 6.79492 9.45215 6.79492C9.95996 6.79492 10.375 6.94629 10.6973 7.24902C11.0195 7.54199 11.1807 8.01074 11.1807 8.65527V20.0811ZM20.6143 21.3994H13.6855V20.0518L20.4971 8.52344C20.6143 8.33789 20.7412 8.14258 20.8779 7.9375C21.0146 7.73242 21.1807 7.54688 21.376 7.38086C21.5713 7.21484 21.8057 7.07812 22.0791 6.9707C22.3525 6.85352 22.6846 6.79492 23.0752 6.79492C23.4951 6.79492 23.8516 6.84375 24.1445 6.94141C24.4375 7.0293 24.6719 7.15625 24.8477 7.32227C25.0332 7.48828 25.165 7.68848 25.2432 7.92285C25.3213 8.15723 25.3604 8.41113 25.3604 8.68457V20.0518H28.2754V21.3994H25.3604V25.8672C25.3604 26.6289 25.1699 27.1807 24.7891 27.5225C24.4082 27.8643 23.8076 28.0352 22.9873 28.0352C22.167 28.0352 21.5664 27.8643 21.1855 27.5225C20.8047 27.1807 20.6143 26.6289 20.6143 25.8672V21.3994ZM20.6143 20.0518V11.3799L15.6045 20.0518H20.6143Z" fill="black"/>
</g>
<defs>
<clipPath id="clip0_267_51">
<rect width="32" height="32" fill="white"/>
</clipPath>
</defs>
</svg>
